<svg xmlns="http://www.w3.org/2000/svg" viewBox="0 0 400 500" width="400" height="500" role="img" aria-labelledby="dynastiqLogoMonoTitle">
  <title id="dynastiqLogoMonoTitle">Dynastiq Antilles</title>
  <g fill="currentColor">
    <polygon points="
      92,120 108,168 138,132 152,190 172,140
      200,105 228,140 248,190 262,132 292,168 308,120
      308,158 92,158
    " />
    <rect x="92" y="158" width="216" height="26" />
    <circle cx="92" cy="120" r="11" />
    <circle cx="200" cy="105" r="12" />
    <circle cx="308" cy="120" r="11" />

    <g stroke="currentColor" stroke-width="7" stroke-linecap="round">
      <line x1="163" y1="184" x2="163" y2="146" />
      <line x1="200" y1="184" x2="200" y2="132" />
      <line x1="237" y1="184" x2="237" y2="146" />
    </g>
    <circle cx="163" cy="140" r="8" />
    <circle cx="200" cy="126" r="8" />
    <circle cx="237" cy="140" r="8" />

    <path fill-rule="evenodd" d="
      M200,148 a152,152 0 1,0 0.1,0 Z
      M200,196 a104,104 0 1,1 -0.1,0 Z
    " opacity="0.9" />
    <circle cx="200" cy="300" r="80" opacity="0.55" />
    <circle cx="200" cy="300" r="52" />
    <circle cx="200" cy="300" r="34" fill="#fff" />
    <circle cx="200" cy="300" r="14" />
  </g>

  <g font-family="Arial, Helvetica, sans-serif" font-weight="700" text-anchor="middle" fill="currentColor">
    <text x="200" y="452" font-size="58" letter-spacing="2">DYNASTIQ</text>
    <text x="200" y="492" font-size="34" letter-spacing="6">ANTILLES</text>
  </g>
</svg>
